# xmcd
#
# Track frame offsets:
#	150
#	18750
#	35700
#	51323
#	66862
#	80647
#	93324
#	112190
#	133359
#	146089
#	164444
#
# Disc length: 2403 seconds
# Revision: 1
# Processed by: cddbd v1.5.2PL0 Copyright (c) Steve Scherf et al.
# Submitted via: dBpowerAMP V12.0
#
DISCID=a309610b
DTITLE=The Big Easy feat. Michelle Brown - I Put a Spell on You
DYEAR=1998
DGENRE=Blues
TTITLE0=Fever
TTITLE1=Love Me With Feeling
TTITLE2=I Put a Spell on You
TTITLE3=Mother Funk
TTITLE4=That's All Right Mama
TTITLE5=Paying the Cost to Be the Boss
TTITLE6=Grandma's Hands
TTITLE7=Don't Let Me Be Misunderstood
TTITLE8=Mama, He Treats Your Daughter Mean
TTITLE9=Use Me
TTITLE10=Please Don't Mess With My Man
EXTD=
EXTT0=
EXTT1=
EXTT2=
EXTT3=
EXTT4=
EXTT5=
EXTT6=
EXTT7=
EXTT8=
EXTT9=
EXTT10=
PLAYORDER=
